<svg width="0" height="0" class="hidden">
  <symbol xmlns="http://www.w3.org/2000/svg" viewBox="0 0 24 24" id="linkedin">
    <g>
      <path d="M0 0h24v24H0z" fill="none"></path>
      <path d="M6.94 5a2 2 0 1 1-4-.002 2 2 0 0 1 4 .002zM7 8.48H3V21h4V8.48zm6.32 0H9.34V21h3.94v-6.57c0-3.66 4.77-4 4.77 0V21H22v-7.93c0-6.17-7.06-5.94-8.72-2.91l.04-1.68z" fill-rule="nonzero"></path>
    </g>
  </symbol>
  <symbol xmlns="http://www.w3.org/2000/svg" viewBox="0 0 50 50" id="telegram">
    <path d="M 25 2 C 12.309288 2 2 12.309297 2 25 C 2 37.690703 12.309288 48 25 48 C 37.690712 48 48 37.690703 48 25 C 48 12.309297 37.690712 2 25 2 z M 25 4 C 36.609833 4 46 13.390175 46 25 C 46 36.609825 36.609833 46 25 46 C 13.390167 46 4 36.609825 4 25 C 4 13.390175 13.390167 4 25 4 z M 34.087891 14.035156 C 33.403891 14.035156 32.635328 14.193578 31.736328 14.517578 C 30.340328 15.020578 13.920734 21.992156 12.052734 22.785156 C 10.984734 23.239156 8.9960938 24.083656 8.9960938 26.097656 C 8.9960938 27.432656 9.7783594 28.3875 11.318359 28.9375 C 12.146359 29.2325 14.112906 29.828578 15.253906 30.142578 C 15.737906 30.275578 16.25225 30.34375 16.78125 30.34375 C 17.81625 30.34375 18.857828 30.085859 19.673828 29.630859 C 19.666828 29.798859 19.671406 29.968672 19.691406 30.138672 C 19.814406 31.188672 20.461875 32.17625 21.421875 32.78125 C 22.049875 33.17725 27.179312 36.614156 27.945312 37.160156 C 29.021313 37.929156 30.210813 38.335938 31.382812 38.335938 C 33.622813 38.335938 34.374328 36.023109 34.736328 34.912109 C 35.261328 33.299109 37.227219 20.182141 37.449219 17.869141 C 37.600219 16.284141 36.939641 14.978953 35.681641 14.376953 C 35.210641 14.149953 34.672891 14.035156 34.087891 14.035156 z M 34.087891 16.035156 C 34.362891 16.035156 34.608406 16.080641 34.816406 16.181641 C 35.289406 16.408641 35.530031 16.914688 35.457031 17.679688 C 35.215031 20.202687 33.253938 33.008969 32.835938 34.292969 C 32.477938 35.390969 32.100813 36.335938 31.382812 36.335938 C 30.664813 36.335938 29.880422 36.08425 29.107422 35.53125 C 28.334422 34.97925 23.201281 31.536891 22.488281 31.087891 C 21.863281 30.693891 21.201813 29.711719 22.132812 28.761719 C 22.899812 27.979719 28.717844 22.332938 29.214844 21.835938 C 29.584844 21.464938 29.411828 21.017578 29.048828 21.017578 C 28.923828 21.017578 28.774141 21.070266 28.619141 21.197266 C 28.011141 21.694266 19.534781 27.366266 18.800781 27.822266 C 18.314781 28.124266 17.56225 28.341797 16.78125 28.341797 C 16.44825 28.341797 16.111109 28.301891 15.787109 28.212891 C 14.659109 27.901891 12.750187 27.322734 11.992188 27.052734 C 11.263188 26.792734 10.998047 26.543656 10.998047 26.097656 C 10.998047 25.463656 11.892938 25.026 12.835938 24.625 C 13.831938 24.202 31.066062 16.883437 32.414062 16.398438 C 33.038062 16.172438 33.608891 16.035156 34.087891 16.035156 z"></path>
  </symbol>
  <symbol xmlns="http://www.w3.org/2000/svg" xmlns:xlink="http://www.w3.org/1999/xlink" version="1.1" id="twitter" xml:space="preserve" viewBox="0 0 24 24">
    <path d="M14.095479,10.316482L22.286354,1h-1.940718l-7.115352,8.087682L7.551414,1H1l8.589488,12.231093L1,23h1.940717  l7.509372-8.542861L16.448587,23H23L14.095479,10.316482z M11.436522,13.338465l-0.871624-1.218704l-6.924311-9.68815h2.981339  l5.58978,7.82155l0.867949,1.218704l7.26506,10.166271h-2.981339L11.436522,13.338465z"></path>
  </symbol>
  <symbol id="whatsapp" version="1.1" xml:space="preserve" xmlns="http://www.w3.org/2000/svg" xmlns:xlink="http://www.w3.org/1999/xlink" viewBox="0 0 56.693 56.693">
    <g>
      <path d="M46.3802,10.7138c-4.6512-4.6565-10.8365-7.222-17.4266-7.2247c-13.5785,0-24.63,11.0506-24.6353,24.6333   c-0.0019,4.342,1.1325,8.58,3.2884,12.3159l-3.495,12.7657l13.0595-3.4257c3.5982,1.9626,7.6495,2.9971,11.7726,2.9985h0.01   c0.0008,0-0.0006,0,0.0002,0c13.5771,0,24.6293-11.0517,24.635-24.6347C53.5914,21.5595,51.0313,15.3701,46.3802,10.7138z    M28.9537,48.6163h-0.0083c-3.674-0.0014-7.2777-0.9886-10.4215-2.8541l-0.7476-0.4437l-7.7497,2.0328l2.0686-7.5558   l-0.4869-0.7748c-2.0496-3.26-3.1321-7.028-3.1305-10.8969c0.0044-11.2894,9.19-20.474,20.4842-20.474   c5.469,0.0017,10.6101,2.1344,14.476,6.0047c3.8658,3.8703,5.9936,9.0148,5.9914,14.4859   C49.4248,39.4307,40.2395,48.6163,28.9537,48.6163z"></path>
      <path d="M40.1851,33.281c-0.6155-0.3081-3.6419-1.797-4.2061-2.0026c-0.5642-0.2054-0.9746-0.3081-1.3849,0.3081   c-0.4103,0.6161-1.59,2.0027-1.9491,2.4136c-0.359,0.4106-0.7182,0.4623-1.3336,0.1539c-0.6155-0.3081-2.5989-0.958-4.95-3.0551   c-1.83-1.6323-3.0653-3.6479-3.4245-4.2643c-0.359-0.6161-0.0382-0.9492,0.27-1.2562c0.2769-0.2759,0.6156-0.7189,0.9234-1.0784   c0.3077-0.3593,0.4103-0.6163,0.6155-1.0268c0.2052-0.4109,0.1027-0.7704-0.0513-1.0784   c-0.1539-0.3081-1.3849-3.3379-1.8978-4.5706c-0.4998-1.2001-1.0072-1.0375-1.3851-1.0566   c-0.3585-0.0179-0.7694-0.0216-1.1797-0.0216s-1.0773,0.1541-1.6414,0.7702c-0.5642,0.6163-2.1545,2.1056-2.1545,5.1351   c0,3.0299,2.2057,5.9569,2.5135,6.3676c0.3077,0.411,4.3405,6.6282,10.5153,9.2945c1.4686,0.6343,2.6152,1.013,3.5091,1.2966   c1.4746,0.4686,2.8165,0.4024,3.8771,0.2439c1.1827-0.1767,3.6419-1.489,4.1548-2.9267c0.513-1.438,0.513-2.6706,0.359-2.9272   C41.211,33.7433,40.8006,33.5892,40.1851,33.281z"></path>
    </g>
  </symbol>
  <symbol id="github" version="1.1" xml:space="preserve" xmlns="http://www.w3.org/2000/svg" xmlns:xlink="http://www.w3.org/1999/xlink" viewBox="0 0 512 512">
    <g>
      <path d="M256,32C132.3,32,32,134.8,32,261.7c0,101.5,64.2,187.5,153.2,217.9c11.2,2.1,15.3-5,15.3-11.1   c0-5.5-0.2-19.9-0.3-39.1c-62.3,13.9-75.5-30.8-75.5-30.8c-10.2-26.5-24.9-33.6-24.9-33.6c-20.3-14.3,1.5-14,1.5-14   c22.5,1.6,34.3,23.7,34.3,23.7c20,35.1,52.4,25,65.2,19.1c2-14.8,7.8-25,14.2-30.7c-49.7-5.8-102-25.5-102-113.5   c0-25.1,8.7-45.6,23-61.6c-2.3-5.8-10-29.2,2.2-60.8c0,0,18.8-6.2,61.6,23.5c17.9-5.1,37-7.6,56.1-7.7c19,0.1,38.2,2.6,56.1,7.7   c42.8-29.7,61.5-23.5,61.5-23.5c12.2,31.6,4.5,55,2.2,60.8c14.3,16.1,23,36.6,23,61.6c0,88.2-52.4,107.6-102.3,113.3   c8,7.1,15.2,21.1,15.2,42.5c0,30.7-0.3,55.5-0.3,63c0,6.1,4,13.3,15.4,11C415.9,449.1,480,363.1,480,261.7   C480,134.8,379.7,32,256,32z"></path>
    </g>
  </symbol>
  <symbol xmlns="http://www.w3.org/2000/svg" xmlns:xlink="http://www.w3.org/1999/xlink" version="1.1" id="gmail" xml:space="preserve" viewBox="0 0 32 32">
    <path d="M31,14h-1h-6h-8v5h7c-1.3,2.7-3.8,5.1-7,5.1c-4.5,0-8.1-3.6-8.1-8.1s3.6-8.1,8.1-8.1c2,0,3.6,0.8,5,2.1l6.7-3.3  C25,3.2,20.8,1,16,1C7.7,1,1,7.7,1,16s6.7,15,15,15s15-6.7,15-15C31,15.2,31.1,14.8,31,14z"></path>
  </symbol>
  <symbol version="1.1" id="instagram" xmlns="http://www.w3.org/2000/svg" xmlns:xlink="http://www.w3.org/1999/xlink" x="0px" y="0px" enable-background="new 0 0 56.7 56.7" xml:space="preserve" viewBox="0 0 56.7 56.7">
    <g>
      <path d="M28.2,16.7c-7,0-12.8,5.7-12.8,12.8s5.7,12.8,12.8,12.8S41,36.5,41,29.5S35.2,16.7,28.2,16.7z M28.2,37.7
		c-4.5,0-8.2-3.7-8.2-8.2s3.7-8.2,8.2-8.2s8.2,3.7,8.2,8.2S32.7,37.7,28.2,37.7z"></path>
      <circle cx="41.5" cy="16.4" r="2.9"></circle>
      <path d="M49,8.9c-2.6-2.7-6.3-4.1-10.5-4.1H17.9c-8.7,0-14.5,5.8-14.5,14.5v20.5c0,4.3,1.4,8,4.2,10.7c2.7,2.6,6.3,3.9,10.4,3.9
		h20.4c4.3,0,7.9-1.4,10.5-3.9c2.7-2.6,4.1-6.3,4.1-10.6V19.3C53,15.1,51.6,11.5,49,8.9z M48.6,39.9c0,3.1-1.1,5.6-2.9,7.3
		s-4.3,2.6-7.3,2.6H18c-3,0-5.5-0.9-7.3-2.6C8.9,45.4,8,42.9,8,39.8V19.3c0-3,0.9-5.5,2.7-7.3c1.7-1.7,4.3-2.6,7.3-2.6h20.6
		c3,0,5.5,0.9,7.3,2.7c1.7,1.8,2.7,4.3,2.7,7.2V39.9L48.6,39.9z"></path>
    </g>
  </symbol>
</svg>